<svg xmlns="http://www.w3.org/2000/svg" viewBox="0 0 512 512">
  <!-- Background -->
  <rect width="512" height="512" rx="112" fill="#1D9E75"/>

  <!-- Plate -->
  <circle cx="256" cy="256" r="130" fill="none" stroke="white" stroke-width="24"/>
  <circle cx="256" cy="256" r="90" fill="none" stroke="white" stroke-width="8" opacity="0.6"/>

  <!-- Dumbbell inside Plate -->
  <!-- Bar -->
  <rect x="190" y="244" width="132" height="24" rx="8" fill="white"/>
  <!-- Inner weights -->
  <rect x="176" y="206" width="24" height="100" rx="8" fill="white"/>
  <rect x="312" y="206" width="24" height="100" rx="8" fill="white"/>
  <!-- Outer weights -->
  <rect x="156" y="220" width="16" height="72" rx="6" fill="white"/>
  <rect x="340" y="220" width="16" height="72" rx="6" fill="white"/>

  <!-- Fork (Left) -->
  <!-- Handle -->
  <rect x="80" y="256" width="20" height="144" rx="10" fill="white"/>
  <!-- Neck -->
  <path d="M68 220 v20 c0 24, 44 24, 44 0 v-20 Z" fill="white"/>
  <!-- Tines -->
  <rect x="68" y="112" width="10" height="120" rx="5" fill="white"/>
  <rect x="85" y="112" width="10" height="120" rx="5" fill="white"/>
  <rect x="102" y="112" width="10" height="120" rx="5" fill="white"/>

  <!-- Knife (Right) -->
  <!-- Handle -->
  <rect x="412" y="256" width="24" height="144" rx="12" fill="white"/>
  <!-- Blade -->
  <path d="M412 260 V124 C412 100, 436 112, 436 136 V260 Z" fill="white"/>
</svg>